# xmcd
# Track frame offsets:
# 150
# 15779
# 30032
# 43004
# 57455
# 66315
# 82654
# 99280
# 112788
# 129544
# 142079
# 155150
# 169641
# 184612
#
# Disc length: 2733 seconds
# Revision: 0
# Processed by: cddbd v1.5.1PL2 Copyright (c) Steve Scherf et al.
# Submitted via: VisiTrax 2.9.10.228 - For more info visit www.synapsa.com
#
DISCID=a40aab0e
DTITLE=Arly Karlsen - Country Home
DYEAR=2004
DGENRE=
TTITLE0=Uncel Herman`s
TTITLE1=500 Miles From Home
TTITLE2=Please Don`t stop Loving me
TTITLE3=Montego Bay
TTITLE4=I`ll Be Your Sugar Daddy
TTITLE5=Four Strong Winds
TTITLE6=I Wish It Was That Easy
TTITLE7=Here`s To Yopu (The Man In Black)
TTITLE8=She`s A Tango
TTITLE9=Sea Of Heartbreak
TTITLE10=It Ain`t Easy
TTITLE11=Living In The Past Tense
TTITLE12=Someone in Someone Else`s Arms
TTITLE13=Grandma`s Place
EXTD=
EXTT0=
EXTT1=
EXTT2=
EXTT3=
EXTT4=
EXTT5=
EXTT6=
EXTT7=
EXTT8=
EXTT9=
EXTT10=
EXTT11=
EXTT12=
EXTT13=
PLAYORDER=
